<svg xmlns="http://www.w3.org/2000/svg" width="18.934" height="22.376" viewBox="0 0 18.934 22.376"><defs><style>.a{fill:#888;}</style></defs><g transform="translate(-5 -3)"><path class="a" d="M21.126,16.141a.861.861,0,1,0-1.21,1.224,7.692,7.692,0,0,1,2.3,5.505c0,1.053-3.017,2.582-7.746,2.582s-7.746-1.53-7.746-2.584a7.693,7.693,0,0,1,2.268-5.476.861.861,0,1,0-1.217-1.217A9.4,9.4,0,0,0,5,22.87c0,2.795,4.877,4.3,9.467,4.3s9.467-1.508,9.467-4.3a9.4,9.4,0,0,0-2.808-6.729Z" transform="translate(0 -1.797)"/><path class="a" d="M15.024,15.049A6.024,6.024,0,1,0,9,9.024a6.024,6.024,0,0,0,6.024,6.024Zm0-10.327a4.3,4.3,0,1,1-4.3,4.3,4.3,4.3,0,0,1,4.3-4.3Z" transform="translate(-0.558 0)"/></g></svg>