<svg xmlns="http://www.w3.org/2000/svg" width="14.096" height="17.16" viewBox="0 0 14.096 17.16"><defs><style>.a{fill:#257796;}</style></defs><g transform="translate(-12.41 -4.782)"><path class="a" d="M19.457,5.621A4.4,4.4,0,0,1,23.866,10a5.606,5.606,0,0,1-1.26,3.361L19.457,17.01,16.31,13.366A5.6,5.6,0,0,1,15.05,10,4.4,4.4,0,0,1,19.457,5.621Zm0-.839A5.247,5.247,0,0,0,14.208,10a6.257,6.257,0,0,0,1.462,3.907h0l1.468,1.7H14.616a.423.423,0,0,0-.4.29l-1.785,5.494a.419.419,0,0,0,.4.547H26.083a.42.42,0,0,0,.4-.547L24.7,15.9a.421.421,0,0,0-.4-.29H22.7a.42.42,0,1,0,0,.838h1.3L25.5,21.1H13.413l1.51-4.653h2.938l1.13,1.308H18.25a.407.407,0,1,0,0,.815h2.413a.408.408,0,1,0,0-.815h-.738l3.32-3.845h0A6.251,6.251,0,0,0,24.708,10a5.247,5.247,0,0,0-5.251-5.222Z"/><path class="a" d="M38.22,22.182a1.28,1.28,0,0,1-1.812,0,1.267,1.267,0,0,1,0-1.805,1.28,1.28,0,0,1,1.812,0,1.261,1.261,0,0,1,0,1.8Zm.6.593a2.112,2.112,0,0,0,0-2.989,2.14,2.14,0,0,0-3,0,2.11,2.11,0,0,0,0,2.989A2.14,2.14,0,0,0,38.817,22.775Z" transform="translate(-17.856 -11.277)"/></g></svg>