<svg xmlns="http://www.w3.org/2000/svg" width="243.279" height="67.14" viewBox="0 0 243.279 67.14"><defs><style>.a,.b{fill:#002736;}.a{fill-rule:evenodd;}.b{font-size:42px;font-weight:700;}</style></defs><g transform="translate(-129.721 -308.93)"><path class="a" d="M47.59,0a9.808,9.808,0,0,0-9.769,9.78v1.491h0a28.624,28.624,0,0,0-4.187-1.058h0l-.216-.04c-.274-.044-.551-.084-.828-.121h0l-.258-.035c-.326-.04-.654-.079-.982-.109h0c-.26-.023-.523-.042-.788-.06h0c-.612-.037-1.226-.065-1.847-.065-.465,0-.93.014-1.409.037-.156,0-.309.021-.465.03l-.274.019-.3.021-.358.033c-.181.016-.361.042-.54.063-.279.033-.561.065-.837.1l-.351.053c-.093.014-.181.033-.274.049-.233.042-.488.084-.73.13-.191.037-.381.079-.57.121s-.43.093-.642.144l-.216.053-.465.123c-.254.067-.5.14-.756.214-.181.053-.365.109-.547.167-.091.028-.184.053-.274.084h-.03c-.151.049-.3.107-.447.158s-.349.121-.523.186c-.258.1-.514.2-.77.3-.093.04-.191.074-.286.114l-.053.021-.135.058c-.288.123-.574.256-.861.388l-.351.163c-.167.081-.333.167-.5.254l-.316.151c-.133.067-.265.133-.4.2l-.233.137c-.3.17-.609.342-.907.523l-.193.119c-.058.035-.114.074-.172.112l-.042.026c-.233.149-.465.3-.7.465-.149.1-.293.2-.442.307s-.34.233-.507.354h0c-.042.028-.081.06-.121.091-.151.112-.3.233-.447.337-.2.156-.4.312-.6.465-.147.119-.291.233-.435.363l-.03.023c-.04.033-.081.065-.119.1-.144.121-.284.247-.423.37s-.312.263-.451.391c-.186.172-.37.349-.551.526-.053.053-.109.1-.163.154l-.023.026c-.072.07-.14.142-.209.212-.186.186-.365.377-.544.57-.121.13-.233.258-.361.388a4.448,4.448,0,0,0-.319.363l-.135.158-.1.114c-.1.121-.209.233-.309.365-.233.27-.435.544-.647.823-.056.07-.112.14-.165.212q-.393.528-.765,1.072l-.207.321c-.107.16-.212.323-.316.488l-.035.053-.156.249c-.088.144-.17.291-.256.435-.137.233-.277.465-.409.712-.077.14-.151.284-.233.426-.028.051-.056.1-.081.156q-.156.3-.307.6c-.081.167-.163.34-.233.512-.109.233-.214.465-.316.7,0,.028-.026.053-.037.079l-.016.037c-.058.137-.114.277-.172.414-.1.233-.191.465-.281.719-.067.179-.135.358-.2.537-.088.247-.17.5-.251.744-.058.179-.119.358-.172.537-.079.26-.154.526-.233.791-.047.17-.1.342-.14.514-.074.3-.14.591-.2.888-.033.147-.067.293-.1.44q-.137.67-.233,1.351c-.028.186-.056.4-.079.633A28.622,28.622,0,0,0,33.735,66.682c.093-.049.181-.1.274-.154A26.308,26.308,0,1,0,2.569,27.522,27.538,27.538,0,1,1,34.363,66.563l-.393.079a28.536,28.536,0,0,0,9.082-3.363l.047-.026c.335-.2.663-.4.988-.6l.1-.063q.465-.3.93-.628l.1-.072c.312-.219.619-.442.919-.674l.042-.033a28.9,28.9,0,0,0,4.242-4.019c.067-.081.14-.16.209-.233.186-.233.37-.449.549-.679.091-.114.181-.233.27-.342.165-.214.326-.433.486-.654l.288-.4c.147-.212.293-.428.435-.644.1-.149.2-.3.291-.465.135-.212.267-.421.4-.637.1-.165.191-.333.286-.5.119-.209.233-.416.351-.628s.2-.377.291-.565.2-.4.3-.6c.142-.3.274-.6.4-.9.1-.233.2-.479.3-.721s.209-.514.3-.775c.067-.177.126-.358.188-.537.084-.233.17-.486.247-.73.06-.186.114-.374.167-.561.072-.244.144-.488.209-.735.051-.191.1-.381.144-.572.063-.251.121-.5.174-.754q.063-.286.119-.572.074-.391.14-.781c.03-.188.063-.377.088-.568.04-.274.074-.549.1-.826.021-.181.044-.361.063-.542.028-.307.049-.616.07-.93,0-.151.023-.3.03-.465.023-.465.037-.93.037-1.4V9.78A9.81,9.81,0,0,0,47.59,0ZM19.573,38.462a9.117,9.117,0,0,1,9.117-9.12h0a9.12,9.12,0,1,1-9.12,9.12Z" transform="translate(129.707 308.93)"/><text class="b" transform="translate(288 358)"><tspan x="-84.127" y="0">tracdisc</tspan></text></g></svg>