<svg xmlns="http://www.w3.org/2000/svg" xmlns:xlink="http://www.w3.org/1999/xlink" width="45" height="45" viewBox="0 0 45 45"><defs><style>.a{fill:none;}.b{fill:#257796;}.c{clip-path:url(#a);}.d{fill:#fff;}</style><clipPath id="a"><rect class="a"/></clipPath></defs><g transform="translate(-214 -219)"><circle class="b" cx="22.5" cy="22.5" r="22.5" transform="translate(214 219)"/><g transform="translate(226 194.46)"><g transform="translate(0 36.54)"><path class="d" d="M21.141,40.333a2.826,2.826,0,0,0-2.074-.859H16.5l-.584-1.558a2.128,2.128,0,0,0-.8-.968,2.041,2.041,0,0,0-1.186-.407H8.067a2.041,2.041,0,0,0-1.186.407,2.129,2.129,0,0,0-.8.968L5.5,39.473H2.933a2.826,2.826,0,0,0-2.074.859A2.826,2.826,0,0,0,0,42.407V52.674a2.826,2.826,0,0,0,.859,2.074,2.826,2.826,0,0,0,2.074.86H19.067A2.934,2.934,0,0,0,22,52.674V42.407A2.826,2.826,0,0,0,21.141,40.333ZM14.627,51.167A4.944,4.944,0,0,1,11,52.674a4.944,4.944,0,0,1-3.627-1.507,5.118,5.118,0,0,1,0-7.253A4.943,4.943,0,0,1,11,42.407a4.944,4.944,0,0,1,3.627,1.507,5.117,5.117,0,0,1,0,7.253Z" transform="translate(0 -36.54)"/><path class="d" d="M195.156,228.4a3.306,3.306,0,1,0,2.332.968A3.178,3.178,0,0,0,195.156,228.4Z" transform="translate(-184.156 -220.703)"/></g></g></g></svg>