<svg xmlns="http://www.w3.org/2000/svg" width="16.893" height="16.893" viewBox="0 0 16.893 16.893"><defs><style>.a{fill:#257796;}</style></defs><path class="a" d="M14.715,1.32H13.2V.528a.528.528,0,0,0-1.056,0V1.32H4.751V.528A.528.528,0,0,0,3.7.528V1.32H2.178A2.18,2.18,0,0,0,0,3.5V14.715a2.18,2.18,0,0,0,2.178,2.178H14.715a2.18,2.18,0,0,0,2.178-2.178V3.5A2.18,2.18,0,0,0,14.715,1.32ZM2.178,2.376H3.7V2.9a.528.528,0,1,0,1.056,0V2.376h7.391V2.9a.528.528,0,0,0,1.056,0V2.376h1.518A1.123,1.123,0,0,1,15.837,3.5V4.751H1.056V3.5A1.123,1.123,0,0,1,2.178,2.376ZM14.715,15.837H2.178a1.123,1.123,0,0,1-1.122-1.122V5.807H15.837v8.908A1.123,1.123,0,0,1,14.715,15.837Z"/></svg>