<svg xmlns="http://www.w3.org/2000/svg" width="18.952" height="18.952" viewBox="0 0 18.952 18.952"><defs><style>.a{fill:#002736;}</style></defs><g transform="translate(0.006 0.003)"><path class="a" d="M.92,18.948a.925.925,0,0,1-.654-1.58l17.1-17.1a.925.925,0,1,1,1.309,1.309l-17.1,17.1a.923.923,0,0,1-.654.271Z" transform="translate(0 0)"/><path class="a" d="M18.023,18.948a.923.923,0,0,1-.654-.271L.268,1.577A.925.925,0,0,1,1.577.268l17.1,17.1a.925.925,0,0,1-.654,1.58Z" transform="translate(-0.003)"/></g></svg>