<svg xmlns="http://www.w3.org/2000/svg" width="78.701" height="78.701" viewBox="0 0 78.701 78.701"><defs><style>.a{fill:#ddf4fd;}.b{fill:#257796;stroke:#ddf4fd;}.c,.d{stroke:none;}.d{fill:#707070;}</style></defs><g transform="translate(-148.15 -187.799)"><g class="a" transform="translate(149 189)"><path class="c" d="M 38.5 76.5 C 33.36980819702148 76.5 28.39335060119629 75.495361328125 23.70883941650391 73.51397705078125 C 19.18388938903809 71.60008239746094 15.11995983123779 68.86006927490234 11.62994003295898 65.37006378173828 C 8.13992977142334 61.88003921508789 5.399919986724854 57.81610870361328 3.486020088195801 53.29116058349609 C 1.504639983177185 48.60665130615234 0.5 43.63019180297852 0.5 38.5 C 0.5 33.36980819702148 1.504639983177185 28.39335060119629 3.486020088195801 23.70883941650391 C 5.399919986724854 19.18388938903809 8.13992977142334 15.11995983123779 11.62994003295898 11.62994003295898 C 15.11995983123779 8.13992977142334 19.18388938903809 5.399919986724854 23.70883941650391 3.486020088195801 C 28.39335060119629 1.504639983177185 33.36980819702148 0.5 38.5 0.5 C 43.63019180297852 0.5 48.60665130615234 1.504639983177185 53.29116058349609 3.486020088195801 C 57.81610870361328 5.399919986724854 61.88003921508789 8.13992977142334 65.37006378173828 11.62994003295898 C 68.86006927490234 15.11995983123779 71.60008239746094 19.18388938903809 73.51397705078125 23.70883941650391 C 75.495361328125 28.39335060119629 76.5 33.36980819702148 76.5 38.5 C 76.5 43.63019180297852 75.495361328125 48.60665130615234 73.51397705078125 53.29116058349609 C 71.60008239746094 57.81610870361328 68.86006927490234 61.88003921508789 65.37006378173828 65.37006378173828 C 61.88003921508789 68.86006927490234 57.81610870361328 71.60008239746094 53.29116058349609 73.51397705078125 C 48.60665130615234 75.495361328125 43.63019180297852 76.5 38.5 76.5 Z"/><path class="d" d="M 38.5 1 C 33.43708801269531 1 28.52615737915039 1.991355895996094 23.90361022949219 3.946525573730469 C 19.43825531005859 5.835212707519531 15.42775726318359 8.539230346679688 11.98348999023438 11.98348999023438 C 8.539230346679688 15.42775726318359 5.835212707519531 19.43825531005859 3.946525573730469 23.90361022949219 C 1.991355895996094 28.52615737915039 1 33.43708801269531 1 38.5 C 1 43.56291198730469 1.991355895996094 48.47384643554688 3.946525573730469 53.09638977050781 C 5.835212707519531 57.56174468994141 8.539230346679688 61.57224273681641 11.98348999023438 65.01651000976562 C 15.42775726318359 68.46076965332031 19.43825531005859 71.16478729248047 23.90361022949219 73.05347442626953 C 28.52615737915039 75.00864410400391 33.43708801269531 76 38.5 76 C 43.56291198730469 76 48.47384643554688 75.00864410400391 53.09638977050781 73.05347442626953 C 57.56174468994141 71.16478729248047 61.57224273681641 68.46076965332031 65.01651000976562 65.01651000976562 C 68.46076965332031 61.57224273681641 71.16478729248047 57.56174468994141 73.05347442626953 53.09638977050781 C 75.00864410400391 48.47384643554688 76 43.56291198730469 76 38.5 C 76 33.43708801269531 75.00864410400391 28.52615737915039 73.05347442626953 23.90361022949219 C 71.16478729248047 19.43825531005859 68.46076965332031 15.42775726318359 65.01651000976562 11.98348999023438 C 61.57224273681641 8.539230346679688 57.56174468994141 5.835212707519531 53.09638977050781 3.946525573730469 C 48.47384643554688 1.991355895996094 43.56291198730469 1 38.5 1 M 38.5 0 C 59.76296615600586 0 77 17.23703384399414 77 38.5 C 77 59.76296615600586 59.76296615600586 77 38.5 77 C 17.23703384399414 77 0 59.76296615600586 0 38.5 C 0 17.23703384399414 17.23703384399414 0 38.5 0 Z"/></g><g transform="translate(148.65 188.299)"><path class="b" d="M38.85,0A38.85,38.85,0,1,0,77.7,38.85,38.893,38.893,0,0,0,38.85,0Zm0,71.682A32.832,32.832,0,1,1,71.682,38.85,32.87,32.87,0,0,1,38.85,71.682Z"/><g transform="translate(20.044 24.558)"><path class="b" d="M168.71,162.6a3.011,3.011,0,0,0-4.249.2L146.1,183.022l-8.869-9.016a3.009,3.009,0,0,0-4.291,4.219l11.1,11.285a3.006,3.006,0,0,0,2.146.9.36.36,0,0,1,.057,0,3.011,3.011,0,0,0,2.17-.987l20.5-22.57A3.011,3.011,0,0,0,168.71,162.6Z" transform="translate(-132.079 -161.824)"/></g></g></g></svg>