<svg xmlns="http://www.w3.org/2000/svg" xmlns:xlink="http://www.w3.org/1999/xlink" width="64.514" height="48.386" viewBox="0 0 64.514 48.386"><defs><style>.a{fill:#257796;}.b{fill:#ddf4fd;}.c{fill:url(#a);}.d{fill:url(#b);}</style><linearGradient id="a" x1="-0.134" y1="1.675" x2="-0.095" y2="1.619" gradientUnits="objectBoundingBox"><stop offset="0" stop-opacity="0.102"/><stop offset="1" stop-opacity="0"/></linearGradient><linearGradient id="b" x1="-0.093" y1="1.501" x2="-0.043" y2="1.47" gradientUnits="objectBoundingBox"><stop offset="0" stop-color="#fff" stop-opacity="0.2"/><stop offset="1" stop-color="#fff" stop-opacity="0"/></linearGradient></defs><g transform="translate(-22.5 -127.614)"><g transform="translate(22.5 63.614)"><path class="a" d="M59.138,64H5.376A5.381,5.381,0,0,0,0,69.376V107.01a5.381,5.381,0,0,0,5.376,5.376H59.138a5.381,5.381,0,0,0,5.376-5.376V69.376A5.381,5.381,0,0,0,59.138,64Z"/><path class="b" d="M93.543,85.333a2.534,2.534,0,0,1,.415.084l-25.868,21a2.872,2.872,0,0,1-2.76.071L39.365,85.417a2.536,2.536,0,0,1,.416-.084H93.543Z" transform="translate(-34.405 -18.645)"/><path class="b" d="M80.472,138.416a2.692,2.692,0,0,1-2.688,2.688H24.022a2.692,2.692,0,0,1-2.688-2.688V100.782a2.627,2.627,0,0,1,.172-.848l26.489,21.489a5.326,5.326,0,0,0,5.72.06,1.24,1.24,0,0,0,.222-.146L80.3,99.934a2.624,2.624,0,0,1,.172.848v37.633Z" transform="translate(-18.646 -31.406)"/><path class="c" d="M78.973,141.1a2.692,2.692,0,0,0,2.688-2.688V100.782a2.626,2.626,0,0,0-.172-.848l-26.364,21.4a1.245,1.245,0,0,1-.222.146,5.326,5.326,0,0,1-5.72-.06L22.695,99.935,63.864,141.1Z" transform="translate(-19.835 -31.406)"/><path class="d" d="M59.138,64H5.376A5.381,5.381,0,0,0,0,69.376V107.01a5.381,5.381,0,0,0,5.376,5.376H59.138a5.381,5.381,0,0,0,5.376-5.376V69.376A5.381,5.381,0,0,0,59.138,64Z"/></g></g></svg>