<svg xmlns="http://www.w3.org/2000/svg" xmlns:xlink="http://www.w3.org/1999/xlink" width="101" height="101" viewBox="0 0 101 101"><defs><style>.a{fill:#fff;}.b{fill:#257796;}.c{filter:url(#a);}</style><filter id="a" x="0" y="0" width="101" height="101" filterUnits="userSpaceOnUse"><feOffset dy="1" input="SourceAlpha"/><feGaussianBlur stdDeviation="8.5" result="b"/><feFlood flood-opacity="0.161"/><feComposite operator="in" in2="b"/><feComposite in="SourceGraphic"/></filter></defs><g transform="translate(-284.5 -379.5)"><g class="c" transform="matrix(1, 0, 0, 1, 284.5, 379.5)"><circle class="a" cx="25" cy="25" r="25" transform="translate(25.5 24.5)"/></g><g transform="translate(320.082 414.082)"><path class="b" d="M139.813,133.975a5.967,5.967,0,1,1-5.967-5.967A5.967,5.967,0,0,1,139.813,133.975Zm0,0" transform="translate(-118.937 -119.057)"/><path class="b" d="M28.942,14.023h-2A12.085,12.085,0,0,0,15.8,2.88V.9a.9.9,0,1,0-1.79,0V2.88A12.085,12.085,0,0,0,2.872,14.023H.9a.9.9,0,1,0,0,1.79H2.872A12.085,12.085,0,0,0,14.014,26.957v1.985a.895.895,0,1,0,1.79,0V26.957A12.084,12.084,0,0,0,26.947,15.813h2a.9.9,0,1,0,0-1.79ZM14.909,25.211A10.293,10.293,0,1,1,25.2,14.918,10.293,10.293,0,0,1,14.909,25.211Zm0,0"/></g></g></svg>