<svg xmlns="http://www.w3.org/2000/svg" xmlns:xlink="http://www.w3.org/1999/xlink" width="32" height="32" viewBox="0 0 32 32"><defs><style>.a{fill:none;}.b{fill:#257796;}.c{clip-path:url(#a);}.d{fill:#fff;}</style><clipPath id="a"><rect class="a" width="23" height="23"/></clipPath></defs><g transform="translate(0 1.997)"><g transform="translate(0 -0.997)"><rect class="b" width="32" height="32" rx="6" transform="translate(0 -1)"/></g><g transform="translate(5 4.5)"><path class="d" d="M11.3,1A4.707,4.707,0,0,0,6.576,5.727v2.1A1.547,1.547,0,0,0,5,9.4V16.23a1.547,1.547,0,0,0,1.576,1.576h9.453A1.547,1.547,0,0,0,17.6,16.23V9.4a1.547,1.547,0,0,0-1.576-1.576v-2.1A4.707,4.707,0,0,0,11.3,1Zm5.252,8.4V16.23a.5.5,0,0,1-.525.525H6.576a.5.5,0,0,1-.525-.525V9.4a.5.5,0,0,1,.525-.525h9.453A.5.5,0,0,1,16.554,9.4ZM7.626,7.827v-2.1a3.676,3.676,0,1,1,7.353,0v2.1Z" transform="translate(0)"/><path class="d" d="M15.576,19A1.547,1.547,0,0,0,14,20.576a1.53,1.53,0,0,0,1.05,1.471V23.2a.525.525,0,0,0,1.05,0V22.046a1.53,1.53,0,0,0,1.05-1.471A1.547,1.547,0,0,0,15.576,19Zm0,2.1a.525.525,0,1,1,.525-.525A.5.5,0,0,1,15.576,21.1Z" transform="translate(-4.273 -8.547)"/></g></g></svg>