<svg xmlns="http://www.w3.org/2000/svg" xmlns:xlink="http://www.w3.org/1999/xlink" width="32" height="32" viewBox="0 0 32 32"><defs><style>.a{fill:none;}.b{fill:#257796;}.c{clip-path:url(#a);}.d{fill:#fff;}</style><clipPath id="a"><rect class="a" width="23" height="23"/></clipPath></defs><g transform="translate(0 1.997)"><g transform="translate(0 -0.997)"><rect class="b" width="32" height="32" rx="6" transform="translate(0 -1)"/></g><g transform="translate(8.398 -52.5)"><g transform="translate(0 61)"><path class="d" d="M14.259,61H1.374A1.305,1.305,0,0,0,0,62.218v8.117a1.3,1.3,0,0,0,1.374,1.218H14.259a1.305,1.305,0,0,0,1.374-1.218V62.218A1.3,1.3,0,0,0,14.259,61Zm-.19.812L7.846,67.327,1.568,61.812ZM.916,70.166V62.382l4.412,3.876Zm.648.574,4.414-3.912,1.547,1.359a.5.5,0,0,0,.646,0L9.679,66.85l4.39,3.89Zm13.154-.574-4.39-3.89,4.39-3.89Z" transform="translate(0 -61)"/></g></g></g></svg>