<svg xmlns="http://www.w3.org/2000/svg" width="20.07" height="14.524" viewBox="0 0 20.07 14.524"><defs><style>.a{fill:#9097a5;}</style></defs><g transform="translate(0 -61)"><g transform="translate(0 61)"><path class="a" d="M18.306,61H1.764A1.725,1.725,0,0,0,0,62.676V73.848a1.724,1.724,0,0,0,1.764,1.676H18.306a1.724,1.724,0,0,0,1.764-1.676V62.676A1.724,1.724,0,0,0,18.306,61Zm-.244,1.117-7.99,7.591L2.013,62.117ZM1.176,73.617V62.9l5.663,5.334Zm.832.79,5.667-5.384,1.986,1.87a.61.61,0,0,0,.83,0l1.936-1.839,5.636,5.355Zm16.887-.79-5.636-5.355,5.636-5.355Z" transform="translate(0 -61)"/></g></g></svg>