<svg xmlns="http://www.w3.org/2000/svg" width="21.32" height="19.657" viewBox="0 0 21.32 19.657"><defs><style>.a{fill:#257796;stroke:#257796;stroke-linejoin:round;stroke-width:0.3px;}</style></defs><path class="a" d="M20.939,10.048a.636.636,0,0,0-.576-.365H.636a.636.636,0,0,0-.491,1.041l7.583,9.2V28.4a.636.636,0,0,0,.919.57l4.261-2.112a.636.636,0,0,0,.354-.569l.008-6.37,7.584-9.2A.636.636,0,0,0,20.939,10.048Zm-8.8,9.241a.636.636,0,0,0-.145.4l-.008,6.2L9,27.377V19.693a.636.636,0,0,0-.145-.4l-6.87-8.333H19.013Z" transform="translate(0.161 -9.533)"/></svg>