<svg xmlns="http://www.w3.org/2000/svg" width="23.74" height="22.257" viewBox="0 0 23.74 22.257"><defs><style>.a{fill:#888;}</style></defs><g transform="translate(0.003 -2)"><path class="a" d="M31.263,21.016l4.451,3.338a.742.742,0,1,0,.89-1.187l-4.121-3.119V13.742a.742.742,0,1,0-1.484,0v6.677A.767.767,0,0,0,31.263,21.016Z" transform="translate(-19.503 -6.92)"/><path class="a" d="M12.61,2A11.128,11.128,0,0,0,1.638,11.273l-.282-.419a.743.743,0,1,0-1.231.831L1.608,13.91a.742.742,0,0,0,.542.33h.074a.74.74,0,0,0,.523-.219L4.6,12.167a.742.742,0,1,0-1.05-1.05l-.46.464A9.644,9.644,0,1,1,12.61,22.772,9.129,9.129,0,0,1,5.054,19a.742.742,0,1,0-1.209.861,10.6,10.6,0,0,0,8.765,4.392A11.128,11.128,0,0,0,12.61,2Z"/></g></svg>