<svg xmlns="http://www.w3.org/2000/svg" width="22.257" height="22.257" viewBox="0 0 22.257 22.257"><defs><style>.a{fill:#fff;}</style></defs><g transform="translate(-4 -5)"><path class="a" d="M8.3,1.044.771,7.465A2.187,2.187,0,0,0,0,9.137V19.325a2.93,2.93,0,0,0,2.911,2.932H7.788v-6.04a2.188,2.188,0,0,1,2.183-2.2h2.314a2.188,2.188,0,0,1,2.183,2.2v6.04h4.876a2.93,2.93,0,0,0,2.911-2.932V9.137a2.165,2.165,0,0,0-.771-1.671L13.96,1.044A4.359,4.359,0,0,0,8.3,1.044Z" transform="translate(4 5)"/></g></svg>