<svg xmlns="http://www.w3.org/2000/svg" width="22.257" height="22.257" viewBox="0 0 22.257 22.257"><defs><style>.a{fill:none;}.b,.c{stroke:none;}.c{fill:#888;}</style></defs><g transform="translate(-4 -5)"><g class="a" transform="translate(4 5)"><path class="b" d="M8.3,1.044.771,7.465A2.187,2.187,0,0,0,0,9.137V19.325a2.93,2.93,0,0,0,2.911,2.932H7.788v-6.04a2.188,2.188,0,0,1,2.183-2.2h2.314a2.188,2.188,0,0,1,2.183,2.2v6.04h4.876a2.93,2.93,0,0,0,2.911-2.932V9.137a2.165,2.165,0,0,0-.771-1.671L13.96,1.044A4.359,4.359,0,0,0,8.3,1.044Z"/><path class="c" d="M 11.12295818328857 1.399995803833008 C 10.42232799530029 1.399995803833008 9.741718292236328 1.651786804199219 9.205867767333984 2.109516143798828 L 1.683727264404297 8.527356147766113 C 1.49810791015625 8.686796188354492 1.399997711181641 8.897456169128418 1.399997711181641 9.136556625366211 L 1.399997711181641 19.32492637634277 C 1.399997711181641 20.16962623596191 2.077957153320312 20.85683631896973 2.911287307739258 20.85683631896973 L 6.387707710266113 20.85683631896973 L 6.387707710266113 16.21710586547852 C 6.387707710266113 14.23264598846436 7.995247840881348 12.61817646026611 9.97117805480957 12.61817646026611 L 12.28565788269043 12.61817646026611 C 14.26158809661865 12.61817646026611 15.86912727355957 14.23264598846436 15.86912727355957 16.21710586547852 L 15.86912727355957 20.85683631896973 L 19.34553718566895 20.85683631896973 C 20.17886734008789 20.85683631896973 20.85683822631836 20.16962623596191 20.85683822631836 19.32492637634277 L 20.85683822631836 9.136556625366211 C 20.85683822631836 8.899116516113281 20.76016807556152 8.682765960693359 20.59161758422852 8.542976379394531 L 20.58409881591797 8.536736488342285 L 20.57666778564453 8.530396461486816 L 13.05411338806152 2.112199783325195 C 12.51123523712158 1.652919769287109 11.82545185089111 1.399995803833008 11.12295818328857 1.399995803833008 M 11.12295818328857 -1.9073486328125e-06 C 12.12917327880859 -1.9073486328125e-06 13.13720798492432 0.3481616973876953 13.95964813232422 1.044486999511719 L 21.48534774780273 7.465366363525391 C 21.98026847839355 7.875836372375488 22.25683784484863 8.491536140441895 22.25683784484863 9.136556625366211 L 22.25683784484863 19.32492637634277 C 22.25683784484863 20.93747711181641 20.94675827026367 22.2568359375 19.34553718566895 22.2568359375 L 14.4691276550293 22.2568359375 L 14.4691276550293 16.21710586547852 C 14.4691276550293 15.0003662109375 13.49384784698486 14.01817607879639 12.28565788269043 14.01817607879639 L 9.97117805480957 14.01817607879639 C 8.762988090515137 14.01817607879639 7.787708282470703 15.0003662109375 7.787708282470703 16.21710586547852 L 7.787708282470703 22.2568359375 L 2.911287307739258 22.2568359375 C 1.310077667236328 22.2568359375 -1.9073486328125e-06 20.93747711181641 -1.9073486328125e-06 19.32492637634277 L -1.9073486328125e-06 9.136556625366211 C -1.9073486328125e-06 8.491536140441895 0.2765674591064453 7.890496253967285 0.7714881896972656 7.465366363525391 L 8.297187805175781 1.044486999511719 C 9.112347602844238 0.3481616973876953 10.11674308776855 -1.9073486328125e-06 11.12295818328857 -1.9073486328125e-06 Z"/></g></g></svg>