<svg xmlns="http://www.w3.org/2000/svg" width="36.852" height="51.769" viewBox="0 0 36.852 51.769"><defs><style>.a{fill:#257796;}</style></defs><g transform="translate(-73.763)"><path class="a" d="M154.593,0c-5.322,0-11.407,8.266-11.407,18.426,0,13.127,10.685,32.244,11.065,33.052.087.185.211.29.342.29a.877.877,0,0,0,.652-.29c.726-.808,17.774-19.925,17.774-33.052A18.447,18.447,0,0,0,154.593,0Zm0,28.078a9.652,9.652,0,1,1,9.652-9.652A9.652,9.652,0,0,1,154.593,28.078Z" transform="translate(-62.404)"/><path class="a" d="M91.848,51.479c-.38-.808-11.065-19.925-11.065-33.052C80.782,8.266,86.867,0,92.189,0A18.447,18.447,0,0,0,73.763,18.426c0,13.127,17.048,32.244,17.774,33.052a.877.877,0,0,0,.652.29C92.059,51.769,91.935,51.664,91.848,51.479Z"/></g></svg>