<svg xmlns="http://www.w3.org/2000/svg" width="36" height="36" viewBox="0 0 36 36"><defs><style>.a{fill:#257796;}.b{fill:#fff;stroke:#fff;stroke-width:0.2px;}</style></defs><g transform="translate(-40 -280)"><rect class="a" width="36" height="36" rx="3" transform="translate(40 280)"/><g transform="translate(9.965 288.271)"><g transform="translate(39.451)"><g transform="translate(0)"><path class="b" d="M54.418,2.568a8.767,8.767,0,0,0-14.967,6.2c0,4.737,4.479,8.678,6.886,10.795.334.294.623.548.853.763a1.511,1.511,0,0,0,2.056,0c.23-.215.519-.469.853-.763,2.406-2.117,6.886-6.057,6.886-10.795A8.71,8.71,0,0,0,54.418,2.568ZM49.3,18.65c-.342.3-.637.56-.88.788a.293.293,0,0,1-.4,0c-.243-.227-.538-.487-.88-.788-2.262-1.99-6.474-5.695-6.474-9.883a7.553,7.553,0,0,1,15.106,0C55.771,12.956,51.56,16.66,49.3,18.65Z" transform="translate(-39.451 0)"/></g></g><g transform="translate(44.355 4.572)"><path class="b" d="M164.434,112.938A3.864,3.864,0,1,0,168.3,116.8,3.868,3.868,0,0,0,164.434,112.938Zm0,6.513a2.649,2.649,0,1,1,2.649-2.649A2.652,2.652,0,0,1,164.434,119.451Z" transform="translate(-160.57 -112.938)"/></g></g></g></svg>