<svg xmlns="http://www.w3.org/2000/svg" width="15" height="20" viewBox="0 0 15 20"><defs><style>.a{fill:#9097a5;}</style></defs><g transform="translate(-5 -1)"><path class="a" d="M12.5,1A5.6,5.6,0,0,0,6.875,6.625v2.5A1.842,1.842,0,0,0,5,11v8.125A1.842,1.842,0,0,0,6.875,21h11.25A1.842,1.842,0,0,0,20,19.125V11a1.842,1.842,0,0,0-1.875-1.875v-2.5A5.6,5.6,0,0,0,12.5,1Zm6.25,10v8.125a.59.59,0,0,1-.625.625H6.875a.59.59,0,0,1-.625-.625V11a.59.59,0,0,1,.625-.625h11.25A.59.59,0,0,1,18.75,11ZM8.125,9.125v-2.5a4.375,4.375,0,0,1,8.75,0v2.5Z" transform="translate(0 0)"/><path class="a" d="M15.875,19A1.842,1.842,0,0,0,14,20.875a1.821,1.821,0,0,0,1.25,1.75V24a.625.625,0,0,0,1.25,0V22.625a1.821,1.821,0,0,0,1.25-1.75A1.842,1.842,0,0,0,15.875,19Zm0,2.5a.625.625,0,1,1,.625-.625A.59.59,0,0,1,15.875,21.5Z" transform="translate(-3.375 -6.75)"/></g></svg>