<svg xmlns="http://www.w3.org/2000/svg" width="86" height="90.95" viewBox="0 0 86 90.95"><defs><style>.a{fill:#257796;fill-rule:evenodd;}</style></defs><path class="a" d="M85.341,38.4a1.778,1.778,0,0,0-1.489-.355l-27.11,5.8-3.041-.65,8.023-16.07q.02-.04.037-.079a19.29,19.29,0,1,0-35.333,0c.012.026.024.053.037.079L32.191,38.59l-2.56-.547c-.024-.006-.048-.008-.072-.011s-.069-.012-.1-.017-.063,0-.094-.006-.069,0-.1,0-.065,0-.1,0-.067,0-.1.007-.067.01-.1.016-.049.006-.074.011L1.4,43.923A1.776,1.776,0,0,0,0,45.659V60.311a1.776,1.776,0,1,0,3.553,0V47.1l23.929-5.12V81.857L3.553,86.976V74.522a1.776,1.776,0,1,0-3.553,0V89.173A1.776,1.776,0,0,0,2.148,90.91l27.11-5.8,27.111,5.8.029,0q.059.011.119.019l.053.007c.056.006.113.009.171.009s.114,0,.17-.009l.053-.007c.04,0,.079-.011.118-.019l.03,0,27.482-5.88A1.777,1.777,0,0,0,86,83.293V68.642a1.776,1.776,0,1,0-3.553,0V81.856l-23.929,5.12V47.1l23.929-5.12V54.431a1.776,1.776,0,1,0,3.553,0V39.779A1.778,1.778,0,0,0,85.341,38.4ZM28.357,19.29a15.737,15.737,0,1,1,30.168,6.285l-14.431,28.9-14.431-28.9A15.611,15.611,0,0,1,28.357,19.29Zm2.678,22.686,3.186.681,8.284,16.592a1.776,1.776,0,0,0,3.179,0l6.378-12.775,2.9.621V86.976l-23.929-5.12V41.976Zm0,0"/><path class="a" d="M206.771,55.712a11.422,11.422,0,1,0-11.422,11.422A11.435,11.435,0,0,0,206.771,55.712Zm-19.292,0a7.87,7.87,0,1,1,7.87,7.869A7.879,7.879,0,0,1,187.479,55.712Zm0,0" transform="translate(-151.254 -36.422)"/><path class="a" d="M1.776,373.072A1.776,1.776,0,1,0,0,371.3,1.78,1.78,0,0,0,1.776,373.072Zm0,0" transform="translate(0 -303.88)"/><path class="a" d="M465.913,336.418a1.776,1.776,0,1,0,1.776,1.776A1.78,1.78,0,0,0,465.913,336.418Zm0,0" transform="translate(-381.689 -276.658)"/></svg>