<svg xmlns="http://www.w3.org/2000/svg" width="12.541" height="20.902" viewBox="0 0 12.541 20.902"><defs><style>.a{fill:#257796;}</style></defs><g transform="translate(-102.4)"><g transform="translate(102.4)"><g transform="translate(0)"><path class="a" d="M112.851,0H104.49a2.093,2.093,0,0,0-2.09,2.09V18.812a2.093,2.093,0,0,0,2.09,2.09h8.361a2.092,2.092,0,0,0,2.09-2.09V2.09A2.093,2.093,0,0,0,112.851,0Zm1.254,18.812a1.256,1.256,0,0,1-1.254,1.254H104.49a1.256,1.256,0,0,1-1.254-1.254V2.09A1.256,1.256,0,0,1,104.49.836h8.361a1.256,1.256,0,0,1,1.254,1.254Z" transform="translate(-102.4)"/></g></g><g transform="translate(107.417 1.672)"><path class="a" d="M227.37,40.96H225.7a.418.418,0,0,0,0,.836h1.672a.418.418,0,1,0,0-.836Z" transform="translate(-225.28 -40.96)"/></g><g transform="translate(108.253 18.394)"><g transform="translate(0)"><path class="a" d="M246.178,450.56a.418.418,0,1,0,.418.418A.418.418,0,0,0,246.178,450.56Z" transform="translate(-245.76 -450.56)"/></g></g><g transform="translate(102.4 3.344)"><g transform="translate(0)"><path class="a" d="M114.523,81.92H102.818a.418.418,0,0,0,0,.836h11.705a.418.418,0,0,0,0-.836Z" transform="translate(-102.4 -81.92)"/></g></g><g transform="translate(102.4 16.722)"><g transform="translate(0)"><path class="a" d="M114.523,409.6H102.818a.418.418,0,1,0,0,.836h11.705a.418.418,0,1,0,0-.836Z" transform="translate(-102.4 -409.6)"/></g></g></g></svg>