<svg xmlns="http://www.w3.org/2000/svg" width="74.292" height="90" viewBox="0 0 74.292 90"><defs><style>.a{fill:#ddf4fd;}.b{fill:#257796;}</style></defs><g transform="translate(-150 -283)"><rect class="a" width="74" height="90" rx="10" transform="translate(150 283)"/><g transform="translate(148 283.35)"><path class="b" d="M67.005,89.15H11.286A9.3,9.3,0,0,1,2,79.863V9.286A9.3,9.3,0,0,1,11.286,0H67.005a9.3,9.3,0,0,1,9.286,9.286V79.863A9.3,9.3,0,0,1,67.005,89.15ZM11.286,3.715A5.579,5.579,0,0,0,5.715,9.286V79.863a5.579,5.579,0,0,0,5.572,5.572H67.005a5.579,5.579,0,0,0,5.572-5.572V9.286a5.579,5.579,0,0,0-5.572-5.572Z" transform="translate(0)"/><path class="b" d="M28,36.287H20.572A5.579,5.579,0,0,1,15,30.716V19.572A5.579,5.579,0,0,1,20.572,14H28a1.857,1.857,0,1,1,0,3.715H20.572a1.86,1.86,0,0,0-1.857,1.857V30.716a1.86,1.86,0,0,0,1.857,1.857H28a1.857,1.857,0,1,1,0,3.715Z" transform="translate(35.29 38.004)"/><path class="b" d="M11.857,36.287A1.858,1.858,0,0,1,10,34.43V19.572A5.579,5.579,0,0,1,15.572,14H23a1.857,1.857,0,1,1,0,3.715H15.572a1.86,1.86,0,0,0-1.857,1.857V34.43A1.858,1.858,0,0,1,11.857,36.287Z" transform="translate(21.717 38.004)"/><path class="b" d="M23,20.715H11.857a1.857,1.857,0,1,1,0-3.715H23a1.857,1.857,0,1,1,0,3.715Z" transform="translate(21.717 46.148)"/><path class="b" d="M18,36.289a1.852,1.852,0,0,1-1.594-.9L8.715,22.563V34.431a1.857,1.857,0,0,1-3.715,0V15.859A1.857,1.857,0,0,1,8.451,14.9l7.693,12.823V15.859a1.857,1.857,0,0,1,3.715,0V34.431a1.858,1.858,0,0,1-1.36,1.79A1.933,1.933,0,0,1,18,36.289Z" transform="translate(8.144 38.003)"/><path class="b" d="M14.036,14.447a2.786,2.786,0,1,1,2.786-2.786A2.789,2.789,0,0,1,14.036,14.447Z" transform="translate(25.11 24.092)"/><path class="b" d="M26.988,13.016a1.866,1.866,0,0,1-1.315-.542,9.486,9.486,0,0,0-13.124,0A1.857,1.857,0,0,1,9.923,9.848a13.288,13.288,0,0,1,18.376,0,1.855,1.855,0,0,1-1.311,3.169Z" transform="translate(20.033 16.719)"/><path class="b" d="M38.365,13.32a1.866,1.866,0,0,1-1.315-.542,18.586,18.586,0,0,0-26.27,0,1.857,1.857,0,0,1-2.626-2.626,22.3,22.3,0,0,1,31.522,0,1.859,1.859,0,0,1,0,2.626A1.839,1.839,0,0,1,38.365,13.32Z" transform="translate(15.231 9.84)"/></g></g></svg>