<svg xmlns="http://www.w3.org/2000/svg" width="177.673" height="177.631" viewBox="0 0 177.673 177.631"><defs><style>.a{fill:#257796;}</style></defs><path class="a" d="M134.818,153.115a2.775,2.775,0,0,1-2.775-2.692c-.666-22.079-2.054-58.285-2.928-61.713l-.291-1.069c-1.082-4.163-2.123-8.174-4.968-9.839-4.024-2.331-18.887-9.714-19.026-9.714a2.784,2.784,0,0,1,2.429-5.01c.624.305,15.265,7.48,19.428,9.922,4.843,2.775,6.286,8.326,7.563,13.239l.264,1.041c1.388,5.079,2.942,57.05,3.122,62.962a2.776,2.776,0,0,1-2.692,2.859Z" transform="translate(40.037 24.349)"/><path class="a" d="M118.081,154.748a2.692,2.692,0,0,1-1.207-.278,28.976,28.976,0,0,1-9.09-7.4c-3.691-4.649-5.19-9.367-6.3-15.015a37.731,37.731,0,0,1-.333-7.9c.069-3.331.167-6.772-.8-8.659-.833-1.638-4.357-7.827-8.1-14.377-1.832-3.206-3.789-6.62-5.648-9.895C81.042,81.42,78.267,76.48,77.545,74.7a10.935,10.935,0,0,1-.291-9.339,11.726,11.726,0,0,1,6.064-5.551c2.651-1.152,7.952-2.068,13.669,4.857l26.825,32.376-4.26,3.58L92.727,68.278c-3.913-4.732-6.356-3.664-7.161-3.3a6.384,6.384,0,0,0-3.289,2.775,5.634,5.634,0,0,0,.347,4.732c.985,2.276,6.855,12.6,8.784,16l5.634,9.895c3.941,6.939,7.341,12.85,8.229,14.6,1.61,3.15,1.513,7.3,1.388,11.324a32.766,32.766,0,0,0,.236,6.689c.971,5,2.193,8.84,5.19,12.642a23.966,23.966,0,0,0,7.175,5.842,2.775,2.775,0,0,1-1.207,5.273Z" transform="translate(29.602 22.883)"/><path class="a" d="M104.938,161.4a11.254,11.254,0,0,1-2.692-.333l-50.555-12.2a11.463,11.463,0,0,1-8.437-13.877L70.7,21.2a11.477,11.477,0,0,1,13.877-8.437l50.555,12.2a11.449,11.449,0,0,1,8.437,13.877l-16.181,66.75a2.775,2.775,0,1,1-5.384-1.3l16.112-66.695a5.953,5.953,0,0,0-4.357-7.119l-50.486-12.2a5.926,5.926,0,0,0-7.119,4.344L48.706,136.409a5.884,5.884,0,0,0,4.344,7.105l50.555,12.212a5.9,5.9,0,0,0,7.119-4.358l3.483-14.835a2.775,2.775,0,1,1,5.4,1.263l-3.483,14.863A11.49,11.49,0,0,1,104.938,161.4Z" transform="translate(16.642 4.821)"/><path class="a" d="M0,0H5.551V72.593H0Z" transform="translate(85.831 37.543) rotate(-76.408)"/><path class="a" d="M0,0H5.551V70.525H0Z" transform="translate(64.447 134.97) rotate(-76.408)"/><path class="a" d="M98.719,30.848a2.553,2.553,0,0,1-.652-.083l-13.7-3.3a2.8,2.8,0,0,1,1.3-5.44l13.7,3.3a2.775,2.775,0,0,1-.652,5.482Z" transform="translate(31.881 8.509)"/><path class="a" d="M70.012,105.573a2.165,2.165,0,0,0-.513,4.274,2.041,2.041,0,0,0,.5,0,2.165,2.165,0,0,0,2.109-1.651,2.193,2.193,0,0,0-1.6-2.623,3.051,3.051,0,0,0-.5,0Z" transform="translate(26.297 40.931)"/><path class="a" d="M61.754,105.9h-.291l-2.026-.236C24.979,101.3,0,79.3,0,53.192,0,23.869,32.015,0,71.357,0c16.75,0,33.028,4.4,45.8,12.393a2.775,2.775,0,0,1-2.942,4.7C102.318,9.714,87.081,5.551,71.357,5.551c-36.275,0-65.807,21.371-65.807,47.641,0,23.259,22.939,43.02,54.566,46.947l1.9.222a2.779,2.779,0,1,1-.278,5.551Z" transform="translate(0 0)"/><path class="a" d="M17.465,53.643A2.769,2.769,0,0,1,15.2,49.272a13.447,13.447,0,0,0,2.456-7.757A13.336,13.336,0,0,0,15.2,33.771a2.775,2.775,0,0,1,4.538-3.192,19.012,19.012,0,0,1,0,21.9,2.775,2.775,0,0,1-2.276,1.166Z" transform="translate(5.697 11.428)"/><path class="a" d="M25.236,60.75a2.777,2.777,0,0,1-2.359-4.233,25.521,25.521,0,0,0,0-26.853A2.777,2.777,0,1,1,27.6,26.737a31.072,31.072,0,0,1,0,32.7A2.776,2.776,0,0,1,25.236,60.75Z" transform="translate(8.708 9.858)"/><path class="a" d="M33.3,68.054a2.775,2.775,0,0,1-2.387-4.163,38.107,38.107,0,0,0,0-38.5,2.775,2.775,0,0,1,4.8-2.775,43.7,43.7,0,0,1,5.967,22.051A43.589,43.589,0,0,1,35.7,66.736a2.775,2.775,0,0,1-2.4,1.318Z" transform="translate(11.842 8.272)"/><path class="a" d="M41.72,75.811a2.775,2.775,0,0,1-2.429-4.149,51.221,51.221,0,0,0,6.675-25.285,51.069,51.069,0,0,0-6.661-25.271,2.785,2.785,0,1,1,4.829-2.775,56.675,56.675,0,0,1,7.383,28.046,56.9,56.9,0,0,1-7.4,28.032A2.775,2.775,0,0,1,41.72,75.811Z" transform="translate(15.094 6.566)"/></svg>