<svg xmlns="http://www.w3.org/2000/svg" width="31.552" height="35.5" viewBox="0 0 31.552 35.5"><defs><style>.a{fill:#257796;}</style></defs><g transform="translate(23 -1)"><path class="a" d="M35.376,32.263,32.921,27.97V17.146a13.146,13.146,0,1,0-26.292,0v9.37L4.106,32.4a1.315,1.315,0,0,0,1.208,1.833h8.019a6.573,6.573,0,0,0,12.883,0h8.019a1.315,1.315,0,0,0,1.141-1.972Zm-15.6,4.6a3.944,3.944,0,0,1-3.7-2.629h7.4A3.944,3.944,0,0,1,19.775,36.864ZM7.309,31.606l1.84-4.3a1.307,1.307,0,0,0,.106-.526V17.146a10.517,10.517,0,1,1,21.033,0V28.32a1.305,1.305,0,0,0,.174.657l1.505,2.629Z" transform="translate(-27 -3)"/></g></svg>