<svg xmlns="http://www.w3.org/2000/svg" width="53.379" height="49.705" viewBox="0 0 53.379 49.705"><defs><style>.a{fill:#ddf4fd;}.b{fill:#257796;}</style></defs><g transform="translate(-22.518 -126.295)"><path class="a" d="M2800.042-830.832l23.77-13.61s0,19.062,0,19.062h22.3v26.2h-46.068Z" transform="translate(-2774 973)"/><g transform="translate(21.518 124.538)"><path class="b" d="M53.166,49.036h-.485v-26.6a1.2,1.2,0,0,0-1.213-1.213H30.429V2.971a1.213,1.213,0,0,0-1.8-1.061L3.6,15.816a1.212,1.212,0,0,0-.624,1.051L2.711,49.036h-.5a1.213,1.213,0,1,0,0,2.426H53.166a1.213,1.213,0,1,0,0-2.426Zm-11.258-.007h-3.13V40.343h3.13ZM30.431,23.65H50.254V49.029h-5.92v-9.9a1.2,1.2,0,0,0-1.213-1.213H37.565a1.2,1.2,0,0,0-1.213,1.213v9.9h-5.92ZM5.393,17.593,28,5.033v44H22.085V39.13a1.2,1.2,0,0,0-1.213-1.213H12.525a1.217,1.217,0,0,0-1.213,1.213v9.906H5.138Zm8.345,31.436V40.343h5.92v8.686Z"/><path class="b" d="M9.9,12.207h2.781a1.213,1.213,0,1,0,0-2.426H9.9a1.213,1.213,0,0,0,0,2.426Z" transform="translate(10.969 11.445)"/><path class="b" d="M5.319,12.207H8.1a1.213,1.213,0,1,0,0-2.426H5.319a1.213,1.213,0,0,0,0,2.426Z" transform="translate(4.429 11.445)"/><path class="b" d="M9.9,14.5h2.781a1.213,1.213,0,1,0,0-2.426H9.9a1.213,1.213,0,1,0,0,2.426Z" transform="translate(10.969 14.715)"/><path class="b" d="M5.319,14.5H8.1a1.213,1.213,0,1,0,0-2.426H5.319a1.213,1.213,0,1,0,0,2.426Z" transform="translate(4.429 14.715)"/><path class="b" d="M9.9,16.792h2.781a1.213,1.213,0,0,0,0-2.426H9.9a1.213,1.213,0,0,0,0,2.426Z" transform="translate(10.969 17.984)"/><path class="b" d="M8.1,16.792a1.213,1.213,0,0,0,0-2.426H5.319a1.213,1.213,0,0,0,0,2.426Z" transform="translate(4.429 17.984)"/><path class="b" d="M18.416,16.792a1.213,1.213,0,0,0,0-2.426H15.634a1.213,1.213,0,1,0,0,2.426Z" transform="translate(19.143 17.984)"/><path class="b" d="M19.074,16.792h2.779a1.213,1.213,0,1,0,0-2.426H19.074a1.213,1.213,0,0,0,0,2.426Z" transform="translate(24.048 17.984)"/><path class="b" d="M15.634,14.5h2.782a1.213,1.213,0,0,0,0-2.426H15.634a1.213,1.213,0,1,0,0,2.426Z" transform="translate(19.143 14.715)"/><path class="b" d="M19.074,14.5h2.779a1.213,1.213,0,1,0,0-2.426H19.074a1.213,1.213,0,0,0,0,2.426Z" transform="translate(24.048 14.715)"/></g></g></svg>