<svg xmlns="http://www.w3.org/2000/svg" width="20.158" height="18.771" viewBox="0 0 20.158 18.771"><defs><style>.a{fill:#9097a5;}</style></defs><g transform="translate(-1 -1.757)"><path class="a" d="M20.7,19.611h-.183V9.566a.454.454,0,0,0-.458-.458H12.113V2.215a.458.458,0,0,0-.681-.4L1.981,7.066a.458.458,0,0,0-.236.4l-.1,12.148H1.458a.458.458,0,0,0,0,.916H20.7a.458.458,0,0,0,0-.916Zm-4.251,0H15.266v-3.28h1.182Zm-4.334-9.584H19.6v9.584H17.365V15.87a.454.454,0,0,0-.458-.458h-2.1a.454.454,0,0,0-.458.458v3.738H12.114ZM2.659,7.737,11.2,2.994V19.611H8.962V15.87a.454.454,0,0,0-.458-.458H5.352a.459.459,0,0,0-.458.458v3.741H2.563ZM5.81,19.609v-3.28H8.046v3.28Z" transform="translate(0 0)"/><path class="a" d="M9.149,10.7H10.2a.458.458,0,0,0,0-.916H9.149a.458.458,0,0,0,0,.916Z" transform="translate(-0.644 -0.672)"/><path class="a" d="M4.564,10.7h1.05a.458.458,0,0,0,0-.916H4.564a.458.458,0,0,0,0,.916Z" transform="translate(-0.26 -0.672)"/><path class="a" d="M9.149,12.989H10.2a.458.458,0,1,0,0-.916H9.149a.458.458,0,0,0,0,.916Z" transform="translate(-0.644 -0.864)"/><path class="a" d="M4.564,12.989h1.05a.458.458,0,1,0,0-.916H4.564a.458.458,0,1,0,0,.916Z" transform="translate(-0.26 -0.864)"/><path class="a" d="M9.149,15.282H10.2a.458.458,0,1,0,0-.916H9.149a.458.458,0,1,0,0,.916Z" transform="translate(-0.644 -1.056)"/><path class="a" d="M5.614,15.282a.458.458,0,1,0,0-.916H4.564a.458.458,0,1,0,0,.916Z" transform="translate(-0.26 -1.056)"/><path class="a" d="M15.93,15.282a.458.458,0,0,0,0-.916h-1.05a.458.458,0,1,0,0,.916Z" transform="translate(-1.124 -1.056)"/><path class="a" d="M18.319,15.282h1.05a.458.458,0,1,0,0-.916h-1.05a.458.458,0,1,0,0,.916Z" transform="translate(-1.412 -1.056)"/><path class="a" d="M14.879,12.989h1.05a.458.458,0,0,0,0-.916h-1.05a.458.458,0,1,0,0,.916Z" transform="translate(-1.124 -0.864)"/><path class="a" d="M18.319,12.989h1.05a.458.458,0,1,0,0-.916h-1.05a.458.458,0,1,0,0,.916Z" transform="translate(-1.412 -0.864)"/></g></svg>