<svg xmlns="http://www.w3.org/2000/svg" xmlns:xlink="http://www.w3.org/1999/xlink" width="32" height="32" viewBox="0 0 32 32"><defs><style>.a{fill:none;}.b{fill:#257796;}.c{clip-path:url(#a);}.d{fill:#fff;stroke:#fff;stroke-width:0.1px;}</style><clipPath id="a"><rect class="a" width="23" height="23"/></clipPath></defs><g transform="translate(0 1.997)"><g transform="translate(0 -0.997)"><rect class="b" width="32" height="32" rx="6" transform="translate(0 -1)"/></g><g transform="translate(7.022 4.91)"><path class="d" d="M17.561,16.766h-.154V8.322a.381.381,0,0,0-.385-.385H10.343V2.142a.385.385,0,0,0-.572-.337L1.824,6.22a.385.385,0,0,0-.2.334L1.543,16.766H1.385a.385.385,0,0,0,0,.77H17.561a.385.385,0,0,0,0-.77Zm-3.574,0h-.994V14.007h.994ZM10.344,8.707h6.293v8.057H14.757V13.622a.381.381,0,0,0-.385-.385H12.608a.381.381,0,0,0-.385.385v3.143H10.344ZM2.395,6.784,9.572,2.8v13.97H7.694V13.622a.381.381,0,0,0-.385-.385H4.659a.386.386,0,0,0-.385.385v3.145H2.314Zm2.649,9.98V14.007H6.923v2.758Z"/><path class="d" d="M9.076,10.551h.883a.385.385,0,1,0,0-.77H9.076a.385.385,0,1,0,0,.77Z" transform="translate(-1.767 -1.843)"/><path class="d" d="M4.491,10.551h.883a.385.385,0,1,0,0-.77H4.491a.385.385,0,1,0,0,.77Z" transform="translate(-0.713 -1.843)"/><path class="d" d="M9.076,12.843h.883a.385.385,0,1,0,0-.77H9.076a.385.385,0,1,0,0,.77Z" transform="translate(-1.767 -2.37)"/><path class="d" d="M4.491,12.843h.883a.385.385,0,1,0,0-.77H4.491a.385.385,0,1,0,0,.77Z" transform="translate(-0.713 -2.37)"/><path class="d" d="M9.076,15.136h.883a.385.385,0,1,0,0-.77H9.076a.385.385,0,1,0,0,.77Z" transform="translate(-1.767 -2.897)"/><path class="d" d="M5.373,15.136a.385.385,0,1,0,0-.77H4.491a.385.385,0,1,0,0,.77Z" transform="translate(-0.713 -2.897)"/><path class="d" d="M15.689,15.136a.385.385,0,0,0,0-.77h-.883a.385.385,0,1,0,0,.77Z" transform="translate(-3.083 -2.897)"/><path class="d" d="M18.246,15.136h.882a.385.385,0,0,0,0-.77h-.882a.385.385,0,1,0,0,.77Z" transform="translate(-3.873 -2.897)"/><path class="d" d="M14.806,12.843h.883a.385.385,0,0,0,0-.77h-.883a.385.385,0,1,0,0,.77Z" transform="translate(-3.083 -2.37)"/><path class="d" d="M18.246,12.843h.882a.385.385,0,0,0,0-.77h-.882a.385.385,0,1,0,0,.77Z" transform="translate(-3.873 -2.37)"/></g></g></svg>