<svg xmlns="http://www.w3.org/2000/svg" width="18.66" height="15.455" viewBox="0 0 18.66 15.455"><defs><style>.a{fill:#9097a5;}</style></defs><path class="a" d="M9.978,0,7.293,2.23a2.724,2.724,0,0,1-.726,3.536,4.315,4.315,0,0,1-4.258.6L0,8.287a10.175,10.175,0,0,0,3.919.8c4.675,0,8.073-3.418,9.317-4.89a.962.962,0,0,0,0-1.268A15.866,15.866,0,0,0,9.978,0Z" transform="translate(5.183 4.545)"/><path class="a" d="M.236,6.153A15.815,15.815,0,0,0,3.5,9.091L6.185,6.86a2.724,2.724,0,0,1,.726-3.535,4.315,4.315,0,0,1,4.256-.6L13.476.8A10.164,10.164,0,0,0,9.557,0C4.8,0,1.452,3.421.232,4.894a.964.964,0,0,0,0,1.259Z" transform="translate(0 2.727)"/><path class="a" d="M.395,15.455a.4.4,0,0,1-.365-.227.35.35,0,0,1,.086-.4L15.907.112a.414.414,0,0,1,.384-.1.382.382,0,0,1,.282.263.351.351,0,0,1-.108.358L.674,15.347A.41.41,0,0,1,.395,15.455Z" transform="translate(1.037 0)"/></svg>