<svg xmlns="http://www.w3.org/2000/svg" width="78.701" height="78.701" viewBox="0 0 78.701 78.701"><defs><style>.a{fill:#ddf4fd;stroke:#707070;}.b,.c{fill:#257796;}.b{stroke:#fff;}.d{stroke:none;}.e{fill:none;}</style></defs><g transform="translate(-147.65 -239.799)"><g transform="translate(-0.5 52)"><g class="a" transform="translate(149 189)"><circle class="d" cx="38.5" cy="38.5" r="38.5"/><circle class="e" cx="38.5" cy="38.5" r="38"/></g><g transform="translate(148.65 188.299)"><path class="b" d="M38.85,0A38.85,38.85,0,1,0,77.7,38.85,38.893,38.893,0,0,0,38.85,0Zm0,71.682A32.832,32.832,0,1,1,71.682,38.85,32.87,32.87,0,0,1,38.85,71.682Z"/></g></g><g transform="translate(-33.997 -78.25)"><g transform="translate(217.725 340.504)"><path class="c" d="M221.96,333.382a3.735,3.735,0,1,0,0,7.469,3.736,3.736,0,0,0,0-7.469Z" transform="translate(-218.15 -307.059)"/><path class="c" d="M220.608,157.282a4.061,4.061,0,0,0-2.883,4.078c.09,1.18.164,2.375.254,3.555.254,4.5.508,8.9.762,13.4a2.737,2.737,0,0,0,2.794,2.629,2.793,2.793,0,0,0,2.794-2.719c0-.926,0-1.778.09-2.719.164-2.883.344-5.766.508-8.65.09-1.867.254-3.735.344-5.6a4.613,4.613,0,0,0-.344-1.867A3.744,3.744,0,0,0,220.608,157.282Z" transform="translate(-217.725 -157.176)"/></g></g></g></svg>