<svg xmlns="http://www.w3.org/2000/svg" width="194" height="230.336" viewBox="0 0 194 230.336"><defs><style>.a,.b{fill:#002736;}.a{fill-rule:evenodd;}.b{font-size:48px;font-weight:700;}</style></defs><g transform="translate(-91 -258.664)"><path class="a" d="M104.419,0A21.524,21.524,0,0,0,82.982,21.462v3.272h0a62.815,62.815,0,0,0-9.187-2.322h0l-.475-.087c-.6-.1-1.21-.184-1.817-.265h0l-.567-.077c-.715-.087-1.434-.174-2.154-.24h0c-.572-.051-1.148-.092-1.73-.133h0c-1.342-.082-2.69-.143-4.053-.143-1.021,0-2.042.031-3.093.082-.342,0-.679.046-1.021.066l-.6.041-.658.046-.786.071c-.4.036-.791.092-1.184.138-.612.071-1.23.143-1.837.23l-.771.117c-.2.031-.4.071-.6.107-.51.092-1.072.184-1.6.286-.419.082-.837.174-1.25.265s-.944.2-1.409.316l-.475.117-1.021.271c-.556.148-1.108.306-1.659.47-.4.117-.8.24-1.2.367-.2.061-.4.117-.6.184h-.066c-.332.107-.653.235-.98.347s-.766.265-1.148.408c-.567.209-1.128.434-1.689.664-.2.087-.419.163-.628.25l-.117.046-.3.128c-.633.271-1.261.561-1.888.852l-.771.357c-.367.179-.73.367-1.092.556l-.694.332c-.291.148-.582.291-.868.444l-.51.3c-.669.373-1.337.75-1.991,1.148l-.424.26c-.128.077-.25.163-.378.245l-.092.056c-.51.327-1.021.653-1.531,1.021-.327.219-.643.449-.97.674s-.745.51-1.113.776h0c-.092.061-.179.133-.265.2-.332.245-.653.51-.98.74-.444.342-.883.684-1.317,1.021-.322.26-.638.51-.954.8l-.066.051c-.087.071-.179.143-.26.219-.316.265-.623.541-.929.812s-.684.577-.99.857c-.408.378-.812.766-1.21,1.154-.117.117-.24.225-.357.337l-.051.056c-.158.153-.306.311-.459.464-.408.408-.8.827-1.194,1.25-.265.286-.51.567-.791.852a9.761,9.761,0,0,0-.7.8l-.3.347-.214.25c-.225.265-.459.51-.679.8-.51.592-.954,1.194-1.419,1.807-.122.153-.245.306-.362.464q-.863,1.159-1.679,2.353l-.454.7c-.235.352-.464.709-.694,1.072l-.077.117-.342.546c-.194.316-.373.638-.561.954-.3.51-.607,1.021-.9,1.562-.168.306-.332.623-.51.934-.061.112-.122.225-.179.342q-.342.648-.674,1.317c-.179.367-.357.745-.51,1.123-.24.51-.47,1.021-.694,1.531,0,.061-.056.117-.082.174l-.036.082c-.128.3-.25.607-.378.909-.214.51-.419,1.021-.618,1.577-.148.393-.3.786-.439,1.179-.194.541-.373,1.087-.551,1.633-.128.393-.26.786-.378,1.179-.174.572-.337,1.153-.51,1.735-.1.373-.209.75-.306,1.128-.163.648-.306,1.3-.449,1.95-.071.322-.148.643-.214.965q-.3,1.47-.51,2.965C.68,75.223.619,75.7.568,76.2a62.81,62.81,0,0,0,73.446,70.129c.2-.107.4-.23.6-.337a57.731,57.731,0,1,0-69-85.6,60.431,60.431,0,1,1,69.771,85.676l-.863.174a62.621,62.621,0,0,0,19.931-7.38l.1-.056c.735-.429,1.455-.868,2.169-1.322l.209-.138q1.021-.669,2.042-1.378l.214-.158c.684-.48,1.358-.97,2.016-1.48l.092-.071a63.432,63.432,0,0,0,9.31-8.82c.148-.179.306-.352.459-.51.408-.51.812-.985,1.2-1.49.2-.25.4-.51.592-.75.362-.47.715-.949,1.067-1.434l.633-.888c.322-.464.643-.939.954-1.414.219-.327.429-.658.638-1.021.3-.464.587-.924.868-1.4.214-.362.419-.73.628-1.1.26-.459.51-.914.771-1.378s.429-.827.638-1.24.449-.868.658-1.312c.311-.648.6-1.307.888-1.965.23-.51.449-1.051.664-1.582s.459-1.128.669-1.7c.148-.388.276-.786.413-1.179.184-.51.373-1.067.541-1.6.133-.408.25-.822.367-1.23.158-.536.316-1.072.459-1.613.112-.419.214-.837.316-1.256.138-.551.265-1.1.383-1.654q.138-.628.26-1.256.163-.857.306-1.715c.066-.413.138-.827.194-1.245.087-.6.163-1.2.23-1.812.046-.4.1-.791.138-1.189.061-.674.107-1.353.153-2.042,0-.332.051-.669.066-1.021.051-1.021.082-2.042.082-3.062V21.462A21.529,21.529,0,0,0,104.419,0ZM42.936,84.4A20.008,20.008,0,0,1,62.944,64.392h0A20.013,20.013,0,1,1,42.931,84.4Z" transform="translate(124.565 258.664)"/><text class="b" transform="translate(188 477)"><tspan x="-96.145" y="0">tracdisc</tspan></text></g></svg>