<svg xmlns="http://www.w3.org/2000/svg" xmlns:xlink="http://www.w3.org/1999/xlink" width="32" height="32" viewBox="0 0 32 32"><defs><style>.a{fill:none;}.b{fill:#257796;}.c{clip-path:url(#a);}.d{fill:#fff;stroke:#257796;stroke-width:0.4px;}</style><clipPath id="a"><rect class="a" width="23" height="23"/></clipPath></defs><g transform="translate(0 1.997)"><g transform="translate(0 -0.997)"><rect class="b" width="32" height="32" rx="6" transform="translate(0 -1)"/></g><g transform="translate(-246 -116.77)"><path class="d" d="M14.564,142.125a.727.727,0,0,0-.284.055.927.927,0,0,0-.316.251.718.718,0,0,0-.075.107c-.249.434-.523.9-.835,1.408l-.011.017-.011-.017a43.573,43.573,0,0,1-1.889-4.2.733.733,0,0,0-.7-.477.711.711,0,0,0-.677.418,1.454,1.454,0,0,0-.065.291,1.414,1.414,0,0,1-.045.22,46.47,46.47,0,0,0-1.9,7.158q-.455-.753-.914-1.5c-.625-1.026-1.271-2.088-1.889-3.141a.657.657,0,0,0-.581-.345.778.778,0,0,0-.516.2.906.906,0,0,0-.26.355c-.148.354-.3.707-.453,1.059l-.128.3a.3.3,0,0,1-.242.16H.694a.714.714,0,0,0,0,1.427H3.3l.037,0,.06,0a.717.717,0,0,0,.263-.047.817.817,0,0,0,.437-.461q.16-.38.324-.758.579.964,1.165,1.923c.579.952,1.178,1.935,1.753,2.911.02.033.04.074.062.117a1.1,1.1,0,0,0,.246.362.693.693,0,0,0,.433.141.777.777,0,0,0,.786-.666,42.822,42.822,0,0,1,1.687-7.361c.511,1.163,1.093,2.359,1.778,3.653a.707.707,0,0,0,.167.212.956.956,0,0,0,.537.186.682.682,0,0,0,.586-.33c.4-.627.806-1.292,1.239-2.034a4.791,4.791,0,0,0,.344-.791C15.35,142.483,14.57,142.128,14.564,142.125Z" transform="translate(254.271 -13)"/></g></g></svg>