<svg xmlns="http://www.w3.org/2000/svg" width="16.835" height="19.841" viewBox="0 0 16.835 19.841"><defs><style>.a{fill:#9097a5;stroke:#fff;stroke-width:0.3px;}</style></defs><g transform="translate(-4.85 -2.85)"><path class="a" d="M19.083,16.109a.752.752,0,1,0-1.057,1.069,6.718,6.718,0,0,1,2.006,4.808c0,.919-2.635,2.255-6.764,2.255S6.5,22.9,6.5,21.984A6.718,6.718,0,0,1,8.483,17.2a.752.752,0,1,0-1.063-1.063A8.212,8.212,0,0,0,5,21.986c0,2.441,4.259,3.758,8.267,3.758s8.267-1.317,8.267-3.758a8.207,8.207,0,0,0-2.452-5.877Z" transform="translate(0 -3.203)"/><path class="a" d="M14.261,13.522A5.261,5.261,0,1,0,9,8.261a5.261,5.261,0,0,0,5.261,5.261Zm0-9.019A3.758,3.758,0,1,1,10.5,8.261,3.758,3.758,0,0,1,14.261,4.5Z" transform="translate(-0.994 0)"/></g></svg>