<svg xmlns="http://www.w3.org/2000/svg" xmlns:xlink="http://www.w3.org/1999/xlink" width="32" height="32" viewBox="0 0 32 32"><defs><style>.a{fill:none;}.b{fill:#257796;}.c{clip-path:url(#a);}.d{fill:#fff;stroke:#a64d7b;stroke-width:0.1px;}</style><clipPath id="a"><rect class="a" width="23" height="23"/></clipPath></defs><g transform="translate(0 1.997)"><g transform="translate(0 -0.997)"><rect class="b" width="32" height="32" rx="6" transform="translate(0 -1)"/></g><g transform="translate(9 5.667)"><path class="d" d="M91.086,8.108a3.923,3.923,0,0,0,2.867-1.188A3.923,3.923,0,0,0,95.14,4.054a3.923,3.923,0,0,0-1.188-2.867,4.053,4.053,0,0,0-5.733,0,3.923,3.923,0,0,0-1.188,2.866,3.923,3.923,0,0,0,1.188,2.867A3.924,3.924,0,0,0,91.086,8.108ZM88.917,1.885a3.067,3.067,0,0,1,4.338,0,2.931,2.931,0,0,1,.9,2.169,2.931,2.931,0,0,1-.9,2.169,3.066,3.066,0,0,1-4.338,0,2.93,2.93,0,0,1-.9-2.169A2.931,2.931,0,0,1,88.917,1.885Zm0,0" transform="translate(-84.17)"/><path class="d" d="M14.01,252.129a10.014,10.014,0,0,0-.136-1.064A8.381,8.381,0,0,0,13.612,250a5.283,5.283,0,0,0-.44-1,3.76,3.76,0,0,0-.663-.864,2.923,2.923,0,0,0-.952-.6,3.291,3.291,0,0,0-1.216-.22,1.234,1.234,0,0,0-.659.279c-.2.129-.429.278-.686.443a3.933,3.933,0,0,1-.888.391,3.449,3.449,0,0,1-2.173,0,3.922,3.922,0,0,1-.888-.391c-.255-.163-.487-.312-.687-.443a1.233,1.233,0,0,0-.659-.279,3.287,3.287,0,0,0-1.216.22,2.921,2.921,0,0,0-.952.6A3.76,3.76,0,0,0,.871,249a5.292,5.292,0,0,0-.44,1,8.4,8.4,0,0,0-.261,1.069,9.945,9.945,0,0,0-.136,1.064c-.022.321-.034.656-.034.994a2.8,2.8,0,0,0,.83,2.115,2.988,2.988,0,0,0,2.139.78h8.105a2.988,2.988,0,0,0,2.139-.78,2.794,2.794,0,0,0,.83-2.115C14.044,252.784,14.032,252.45,14.01,252.129Zm-1.476,2.394a2.012,2.012,0,0,1-1.459.508h-8.1a2.012,2.012,0,0,1-1.459-.508,1.825,1.825,0,0,1-.524-1.4c0-.315.01-.627.031-.926a8.972,8.972,0,0,1,.123-.958,7.408,7.408,0,0,1,.23-.943,4.309,4.309,0,0,1,.358-.811,2.787,2.787,0,0,1,.487-.638,1.939,1.939,0,0,1,.634-.394,2.27,2.27,0,0,1,.777-.15c.035.018.1.053.2.118.2.132.437.283.695.448a4.887,4.887,0,0,0,1.115.5,4.435,4.435,0,0,0,2.779,0,4.893,4.893,0,0,0,1.115-.5c.264-.169.492-.315.694-.448.1-.065.161-.1.2-.118a2.272,2.272,0,0,1,.777.15,1.942,1.942,0,0,1,.633.394,2.779,2.779,0,0,1,.487.639,4.294,4.294,0,0,1,.358.811,7.392,7.392,0,0,1,.23.943,9.046,9.046,0,0,1,.123.958h0c.021.3.031.609.032.925A1.825,1.825,0,0,1,12.533,254.523Zm0,0" transform="translate(0 -239.186)"/></g></g></svg>