<svg xmlns="http://www.w3.org/2000/svg" width="74.062" height="79" viewBox="0 0 74.062 79"><defs><style>.a{fill:#ddf4fd;stroke:#707070;}.b{fill:#257796;}</style></defs><g transform="translate(-140.937 -205)"><path class="a" d="M1942.818,223.923c-.359.046-1.295,10.833-1.295,10.833L1934.534,242l-2.2,8.461,5.371,9.207,5.111,4.226s0,16.629,0,16.629h49.434V211.288l-4.467-3.837-9.329,1.264-35.638,11.979S1943.177,223.877,1942.818,223.923Z" transform="translate(-1780)"/><g transform="translate(124.937 205)"><path class="b" d="M80.805,0a9.2,9.2,0,0,0-3.228.58L36.15,13.989a2.439,2.439,0,0,0-1.634,2.246v13.1a16.188,16.188,0,0,0-6.027,24.333L16.678,65.483a2.314,2.314,0,0,0,3.273,3.273l11.81-11.81a16.214,16.214,0,0,0,2.754,1.665V76.686A2.315,2.315,0,0,0,36.831,79H87.748a2.315,2.315,0,0,0,2.314-2.314V9.258A9.268,9.268,0,0,0,80.805,0ZM72.79,13.887H51.5L71.75,7.332a9.251,9.251,0,0,0,1.04,6.555ZM41.459,32.4A11.572,11.572,0,1,1,29.887,43.975,11.585,11.585,0,0,1,41.459,32.4ZM85.434,74.371H39.145V60.01a16.2,16.2,0,1,0,0-32.07V18.516h41.66a2.314,2.314,0,0,0,0-4.629,4.629,4.629,0,1,1,4.629-4.629Z"/><path class="b" d="M330.564,150.678l-7.621,7.621-2.992-2.992a2.314,2.314,0,0,0-3.273,3.273l4.629,4.629a2.314,2.314,0,0,0,3.273,0l9.258-9.258a2.314,2.314,0,1,0-3.273-3.273Z" transform="translate(-253.71 -126.855)"/><path class="b" d="M330.564,240.678l-7.621,7.621-2.992-2.992a2.314,2.314,0,0,0-3.273,3.273l4.629,4.629a2.314,2.314,0,0,0,3.273,0l9.258-9.258a2.314,2.314,0,1,0-3.273-3.273Z" transform="translate(-253.71 -202.968)"/><path class="b" d="M330.564,330.678l-7.621,7.621-2.992-2.992a2.314,2.314,0,0,0-3.273,3.273l4.629,4.629a2.314,2.314,0,0,0,3.273,0l9.258-9.258a2.314,2.314,0,1,0-3.273-3.273Z" transform="translate(-253.71 -279.082)"/></g></g></svg>